PathFileType	4	(X/Y/Z)	C:/Users/opensim2020/Desktop/walking_exp_matlab/subject01_walking13_straight_01.trc	
DataRate	CameraRate	NumFrames	NumMarkers	Units	OrigDataRate	OrigDataStartFrame	OrigNumFrames	
100.00	100.00	8	42	mm	100.00	602	142	
Frame#	Time	LFHD			RFHD			LBHD			RBHD			C7			T10			CLAV			STRN			RBAK			LSHO			LUPA			LELB			LFRM			LWRA			LWRB			LFIN			RSHO			RUPA			RELB			RFRM			RWRA			RWRB			RFIN			LASI			RASI			LPSI			RPSI			LTHI			LKNE			LTIB			LANK			LHEE			LTOE			RTHI			RKNE			RTIB			RANK			RHEE			RTOE			*39			*40			*41			
		X1	Y1	Z1	X2	Y2	Z2	X3	Y3	Z3	X4	Y4	Z4	X5	Y5	Z5	X6	Y6	Z6	X7	Y7	Z7	X8	Y8	Z8	X9	Y9	Z9	X10	Y10	Z10	X11	Y11	Z11	X12	Y12	Z12	X13	Y13	Z13	X14	Y14	Z14	X15	Y15	Z15	X16	Y16	Z16	X17	Y17	Z17	X18	Y18	Z18	X19	Y19	Z19	X20	Y20	Z20	X21	Y21	Z21	X22	Y22	Z22	X23	Y23	Z23	X24	Y24	Z24	X25	Y25	Z25	X26	Y26	Z26	X27	Y27	Z27	X28	Y28	Z28	X29	Y29	Z29	X30	Y30	Z30	X31	Y31	Z31	X32	Y32	Z32	X33	Y33	Z33	X34	Y34	Z34	X35	Y35	Z35	X36	Y36	Z36	X37	Y37	Z37	X38	Y38	Z38	X39	Y39	Z39	X40	Y40	Z40	X41	Y41	Z41	X42	Y42	Z42	

1	0.000	-1118.07532	-667.31335	1655.74768	-1007.30396	-649.22229	1667.75952	-1102.42615	-777.71729	1599.47156	-983.51599	-760.80151	1610.09753	-1052.77478	-802.79517	1424.32141	-1033.60620	-865.94067	1137.44470	-1053.78638	-663.16486	1346.96509	-1060.55713	-635.29626	1187.77393	-969.36023	-871.01001	1236.93042	-1210.55835	-729.76837	1380.19507	-1306.55005	-752.44055	1205.12573	-1327.76685	-735.58875	1053.82410	-1351.38477	-647.03455	976.44800	-1332.49219	-521.70374	919.55896	-1355.21667	-565.28088	886.19360	-1373.17871	-490.99738	855.60706	-901.61639	-721.83746	1381.90479	-794.42786	-808.88776	1197.28967	-783.05658	-825.85455	1075.23975	-747.28094	-818.61688	956.90295	-763.25085	-762.47028	825.92438	-723.67590	-803.85535	837.09076	-721.09424	-782.58496	753.54181	-1148.32434	-723.65717	915.71088	-934.13690	-698.70795	924.63989	-1073.05615	-900.58649	942.53204	-928.87183	-880.60785	940.36151	-1202.18567	-804.54865	591.21454	-1188.69250	-832.87408	458.23080	-1194.96582	-916.49274	286.47134	-1144.29285	-972.08771	71.60284	-1085.74121	-1011.95361	43.80864	-1175.22144	-831.26984	29.29644	-869.13959	-641.00525	612.07043	-902.17688	-587.60309	461.52802	-899.77942	-646.23041	293.59818	-952.86743	-684.02258	93.12336	-1006.86176	-732.26990	56.32593	-951.00610	-552.20282	45.77327	-1030.39465	-665.25024	1698.67029	-3102.11768	1973.16602	1024.80542	-3138.67212	2013.03442	1022.37561 
2	0.010	-1117.53662	-656.73761	1654.82397	-1006.60272	-638.73071	1666.32007	-1102.36548	-767.16998	1598.50317	-983.40924	-750.47980	1608.68091	-1053.64539	-791.94897	1422.90247	-1034.76880	-855.17395	1136.09119	-1053.57202	-652.51855	1345.61572	-1061.22388	-624.42218	1186.49133	-970.82843	-860.57874	1235.43677	-1211.16223	-718.37128	1379.41736	-1307.93457	-740.14954	1204.80469	-1330.52417	-721.89911	1053.87354	-1353.40686	-630.76855	979.15320	-1333.35034	-503.79782	926.30475	-1357.00098	-546.06085	891.71356	-1374.60986	-470.42340	863.95233	-902.26776	-711.60052	1380.18591	-795.63562	-799.93707	1195.98364	-784.06677	-817.49664	1074.24731	-747.81464	-811.74310	955.90631	-762.85760	-756.45361	824.50250	-723.53381	-798.04529	836.15503	-720.47797	-777.76276	752.40149	-1149.80371	-713.23322	914.32874	-935.41016	-687.72717	923.25336	-1074.05286	-889.97101	941.27698	-930.16125	-869.83331	938.80164	-1202.47070	-797.80389	590.46014	-1189.35425	-828.97528	457.87143	-1195.15430	-914.33734	286.86093	-1144.32751	-971.61151	72.59116	-1085.72791	-1011.74084	45.25232	-1175.44287	-831.19470	29.36144	-869.86768	-632.09406	609.94196	-903.26660	-576.09418	461.12231	-899.61267	-625.50836	290.99680	-952.25336	-649.05121	87.30307	-1006.15552	-695.12836	47.43628	-950.46216	-514.42218	48.10387	-1029.91711	-654.65961	1697.17114	-3102.60815	1972.92188	1024.03516			 
3	0.020	-1117.25574	-646.26709	1653.76257	-1006.04498	-628.53278	1664.67700	-1102.23291	-756.60718	1597.30396	-983.21265	-740.16748	1607.12073	-1054.31384	-781.31464	1421.60693	-1035.62927	-844.25775	1134.56628	-1054.02930	-641.54059	1344.32507	-1061.87708	-613.38995	1185.10339	-972.00031	-849.96484	1233.87671	-1211.57166	-706.85767	1378.52454	-1309.25525	-727.77136	1204.35242	-1333.18835	-708.25403	1053.85938	-1355.37146	-614.65564	981.78937	-1334.00745	-486.17130	933.06744	-1358.12305	-527.20203	897.08380	-1374.77747	-450.64481	871.38971	-902.75244	-701.12939	1378.50940	-796.76727	-790.85931	1194.60266	-785.01202	-808.95538	1073.08667	-748.26141	-804.43262	954.89703	-762.46185	-750.07556	823.00800	-723.51556	-791.83533	835.10065	-720.31580	-772.25720	751.02472	-1151.22742	-702.69202	912.88513	-936.68042	-676.57281	921.65662	-1074.91272	-879.16431	939.71790	-931.18219	-858.88818	936.92578	-1202.48621	-790.88861	589.80365	-1189.89038	-824.81958	457.55490	-1195.19861	-911.88098	287.35748	-1144.34167	-971.02545	73.60792	-1085.67590	-1011.31439	46.86701	-1175.26953	-830.91180	29.06407	-870.44208	-621.64178	608.16663	-904.36121	-564.94226	460.43533	-899.60065	-605.42139	288.60037	-951.38623	-614.44580	82.44064	-1004.92285	-657.78864	39.96699	-949.82849	-477.42358	51.39241	-1029.07654	-644.37531	1695.84998	-3102.28491	1973.07800	1024.70203	-3138.64160	2013.07886	1022.21295 
4	0.030	-1116.41760	-635.46973	1652.45496	-1005.02209	-617.86414	1663.64758	-1102.07397	-745.82758	1595.88623	-982.95557	-729.68280	1605.30225	-1054.89075	-770.40308	1419.97412	-1036.17517	-833.33459	1133.03809	-1054.93665	-630.40826	1342.77112	-1062.41687	-602.37512	1183.53162	-972.97314	-839.22076	1232.14087	-1212.01160	-695.35229	1377.39258	-1310.40344	-715.38800	1203.76770	-1335.65466	-694.62555	1053.71924	-1356.83301	-598.74860	984.50378	-1334.47449	-469.05127	939.56500	-1359.11890	-508.77509	902.34912	-1375.24695	-431.11185	879.22198	-903.06964	-690.65338	1376.70203	-797.71796	-781.61603	1193.17065	-785.86475	-800.25934	1071.77051	-748.67816	-796.89484	953.74036	-762.18085	-743.30682	821.39923	-723.48669	-785.71741	833.77014	-720.16785	-766.13916	749.59796	-1152.63977	-692.08600	911.42444	-937.86249	-665.04510	919.94592	-1075.52795	-868.28809	937.99890	-931.87030	-847.74622	935.07776	-1202.39941	-783.84784	589.25720	-1190.29895	-820.33173	457.42368	-1195.17603	-909.19824	288.03470	-1144.23462	-970.34119	74.91768	-1085.58716	-1010.89087	48.75294	-1175.53357	-830.87531	29.05140	-870.91101	-612.11749	605.42120	-905.20728	-553.97253	459.55173	-899.54688	-585.80603	286.29547	-950.30914	-580.67871	79.21902	-1003.68823	-622.10626	34.65385	-949.02753	-441.78094	55.64544	-1028.40393	-634.08771	1694.34839	-3102.59229	1973.00952	1024.09143	-3138.38867	2013.19202	1022.11896 
5	0.040	-1115.90735	-624.86469	1651.19946	-1004.58380	-607.72986	1661.51245	-1101.81824	-734.97131	1594.23657	-982.65509	-719.17517	1603.27539	-1055.35156	-759.54376	1418.50415	-1036.53064	-822.28516	1131.32239	-1054.78455	-619.41077	1341.14258	-1062.91736	-591.20239	1181.85364	-973.75366	-828.37396	1230.32507	-1212.16602	-683.80225	1376.16882	-1311.49097	-702.92499	1203.04700	-1337.99414	-681.03943	1053.41260	-1358.34705	-583.02948	986.82190	-1334.77600	-452.37958	945.88110	-1359.76111	-490.40253	907.74396	-1375.40527	-412.14984	886.98096	-903.31952	-679.97046	1374.74878	-798.65723	-772.22748	1191.57312	-786.52832	-791.36963	1070.34863	-749.04297	-789.07220	952.41821	-761.86743	-736.17938	819.72382	-723.46600	-778.76575	832.39386	-720.19092	-760.22107	747.98364	-1153.94714	-681.21625	909.95233	-939.07770	-653.20575	918.27716	-1075.94897	-857.16614	936.00519	-932.48639	-836.29102	932.94250	-1202.30920	-776.51263	588.70135	-1190.70923	-815.51263	457.37744	-1195.04443	-906.36273	288.94339	-1144.17188	-969.64264	76.18871	-1085.44812	-1010.36920	50.75259	-1175.47925	-830.82043	28.92517	-871.35913	-603.38379	602.53143	-905.92621	-543.05707	458.28934	-899.57123	-566.18256	284.07645	-949.46661	-548.15674	77.36389	-1002.52502	-587.62524	31.36752	-948.01923	-408.15265	61.11253	-1027.54004	-623.65381	1692.74768	-3102.90967	1972.83093	1024.56506	-3138.40503	2013.07971	1022.08856 
6	0.050	-1115.14490	-614.05658	1649.78979	-1003.73810	-597.33008	1659.73560	-1101.48047	-724.04510	1592.48425	-982.25037	-708.64807	1601.28101	-1055.55164	-748.51917	1416.63013	-1036.70227	-811.11505	1129.49817	-1055.23682	-608.04279	1339.50598	-1063.23706	-579.98859	1180.11694	-974.29633	-817.38641	1228.41968	-1212.28809	-672.19336	1374.85583	-1312.47412	-690.42511	1202.29370	-1340.14331	-667.45148	1053.09546	-1359.77002	-567.46783	988.88715	-1334.89319	-436.11972	951.85620	-1360.19922	-472.67191	912.62018	-1375.31323	-393.73935	894.37933	-903.48248	-669.02155	1372.73889	-799.40985	-762.76691	1189.87866	-787.14471	-782.19501	1068.76941	-749.38220	-780.80487	950.89575	-761.64178	-728.61792	817.92096	-723.65924	-771.12067	830.83093	-720.12982	-752.74146	746.31128	-1155.28113	-670.16809	908.54480	-940.26807	-641.21515	916.52380	-1076.26453	-845.86688	933.80145	-932.95557	-824.49921	930.69379	-1202.45251	-768.95923	588.13757	-1191.37695	-810.59424	457.45291	-1194.54028	-903.40424	289.89935	-1144.08533	-968.87909	77.85280	-1085.32886	-1009.95502	53.06873	-1175.70496	-830.83374	29.01227	-871.51355	-595.08398	599.29248	-906.75500	-532.04010	456.86673	-899.50671	-546.44519	282.22971	-948.86591	-518.04736	76.81088	-1001.54480	-555.46545	29.93187	-946.96375	-376.94455	67.07623	-1026.61499	-613.22076	1691.00439	-3102.82837	1972.87903	1024.15112	-3138.59351	2013.07568	1022.20862 
7	0.060	-1114.27808	-603.15649	1648.32727	-1003.00427	-587.01251	1658.15002	-1101.03052	-713.00055	1590.64746	-981.75775	-697.92352	1599.18542	-1055.52588	-737.22095	1415.13904	-1036.71033	-799.76294	1127.64258	-1055.05273	-596.71448	1337.73975	-1063.42810	-568.68170	1178.41589	-974.55945	-806.22375	1226.49707	-1212.09778	-660.54315	1373.50439	-1313.27429	-677.86804	1201.52844	-1342.07861	-653.97437	1052.63477	-1361.01575	-552.22388	990.91638	-1334.90271	-420.19464	957.50989	-1360.55249	-455.34106	917.30963	-1375.01941	-375.78397	901.48840	-903.14935	-657.93073	1370.71533	-799.99420	-753.37488	1187.96252	-787.58716	-772.72308	1067.09180	-749.60535	-772.17780	949.29919	-761.48877	-720.66449	816.03217	-723.68451	-763.66724	829.17566	-720.18402	-745.38336	744.55908	-1156.42053	-658.81519	907.16174	-941.31921	-629.15778	914.74493	-1076.40491	-834.32928	931.60876	-933.14508	-812.67365	928.66296	-1202.77161	-761.13818	587.60742	-1191.48743	-804.99286	457.57190	-1194.28223	-900.02350	291.14148	-1144.01123	-968.04572	79.75881	-1085.18848	-1009.14886	55.66264	-1175.82996	-830.88715	28.66465	-871.02460	-586.38379	595.90198	-907.17780	-520.09906	455.59851	-899.41803	-526.48108	281.25125	-948.42023	-490.03479	76.97390	-1001.14240	-526.43292	28.86458	-946.00983	-348.58405	72.27010	-1025.35083	-602.72534	1689.42639	-3102.26074	1973.13489	1024.58167	-3138.37061	2013.16895	1022.26941 
8	0.070	-1113.33020	-592.13861	1646.90491	-1001.29932	-575.78333	1657.10742	-1100.50513	-701.83673	1588.85608	-981.21594	-687.02203	1597.10229	-1055.26050	-725.78204	1413.46265	-1036.62671	-788.22827	1125.88464	-1054.49670	-585.31567	1335.93494	-1063.41846	-557.22485	1176.71484	-974.68933	-794.97760	1224.65076	-1211.77209	-648.86053	1372.19104	-1313.86816	-665.30835	1200.83801	-1343.70142	-640.38654	1052.22424	-1361.82910	-537.18457	992.73883	-1334.85388	-404.87100	962.84003	-1360.38525	-438.64026	921.33105	-1374.13318	-358.37766	908.23248	-902.95020	-646.81622	1368.73914	-800.45782	-743.09241	1186.26624	-787.85388	-762.99579	1065.34058	-749.78503	-763.17908	947.55548	-761.37689	-712.09180	814.11920	-723.97797	-754.76862	827.33337	-720.21625	-737.42572	742.67780	-1157.45435	-647.22156	905.75073	-942.23853	-616.75482	913.08936	-1076.46423	-822.60858	929.41187	-933.26257	-800.27057	926.21423	-1203.20508	-753.05640	587.15778	-1191.98938	-798.99652	457.69934	-1194.16650	-896.26843	292.53131	-1144.08252	-967.07947	81.81739	-1085.29431	-1008.35474	58.67453	-1175.82202	-830.76648	28.68102	-870.14032	-577.79022	592.71552	-907.72192	-507.64163	454.61737	-899.36414	-507.31790	280.72598	-948.09503	-465.03198	77.40865	-1001.05023	-499.59637	27.82441	-945.27185	-323.71011	76.44830	-1024.36853	-592.02423	1687.70313	-3102.23730	1973.08411	1024.04468	-3138.45703	2013.16077	1022.16162 
